# xmcd
#
# Track frame offsets:
#	180
#	23255
#	33916
#	45305
#	60049
#	77253
#	90048
#	102342
#	118661
#	132867
#	144526
#	158183
#	177555
#	187529
#	204991
#	222972
#
# Disc length: 3178
#
# Revision: 2
# Processed by: cddbd v1.5.1PL0 Copyright (c) Steve Scherf et al.
# Submitted via: audiograbber 1.83.01
# Normalized: r1:DSETVAR1
#
DISCID=b30c6810
DTITLE=Various Artist - Country Classics
DYEAR=1900
DGENRE=Country
TTITLE0=Red Sovine - Teddy Bear
TTITLE1=Jim Reeves - He'll Have To Go
TTITLE2=Tom T. Hall - Ravishing Ruby
TTITLE3=Bellamy Brothers - Let Your Love Flow
TTITLE4=C.W. McCall - Convoy
TTITLE5=Dr Hook - Sharing The Night Together
TTITLE6=Judds - Rockin' With The Rhythm Of The Rain
TTITLE7=Kenny Rogers - Lucille
TTITLE8=Eddie Rabbit - I Love A Rainy Night
TTITLE9=Crystal Gayle - Don't It Make Your Brown Eyes Blue
TTITLE10=Jim Croce - Bad Bad Leroy Brown
TTITLE11=Bobbie Gentry - Ode To Billie Joe
TTITLE12=Anne Murray - Snowbird
TTITLE13=Charlene - I've Never Been To Me
TTITLE14=John Denver - Leaving On A Jet Plane
TTITLE15=Billy Ray Cyrus - Achy Breaky Heart
EXTD=YEAR: 1900
EXTT0=
EXTT1=
EXTT2=
EXTT3=
EXTT4=
EXTT5=
EXTT6=
EXTT7=
EXTT8=
EXTT9=
EXTT10=
EXTT11=
EXTT12=
EXTT13=
EXTT14=
EXTT15=
PLAYORDER=
